<svg width="100" height="100" viewBox="0 0 100 100" fill="none" xmlns="http://www.w3.org/2000/svg">
  <circle cx="50" cy="50" r="50" fill="#65D14A"/>
  <path d="M27.1716 48.6547L27.1715 48.6547C25.6095 50.2169 25.6095 52.7494 27.1715 54.3116L27.1932 54.3332L27.2158 54.354L44.5153 70.295C44.8237 70.5983 45.1711 70.8427 45.5425 71.0268C47.4285 72.0259 49.7789 71.3669 50.8646 69.5137L72.5237 34.5401L72.5359 34.5204L72.5475 34.5003C73.652 32.5873 72.9967 30.1407 71.0834 29.0362C69.1783 27.9364 66.7446 28.5817 65.6334 30.4761L46.5393 61.1277L32.8004 48.6269C31.2362 47.0927 28.7243 47.1019 27.1716 48.6547Z" fill="white" stroke="white" stroke-width="3"/>
</svg>